<mxfile host="65bd71144e">
    <diagram id="GQCTTJcsUH3smYpTMoTU" name="Page-1">
        <mxGraphModel dx="280" dy="159" grid="1" gridSize="10" guides="1" tooltips="1" connect="1" arrows="1" fold="1" page="1" pageScale="1" pageWidth="827" pageHeight="1169" math="0" shadow="0">
            <root>
                <mxCell id="0"/>
                <mxCell id="1" parent="0"/>
                <mxCell id="13" value="Yoochan Han&lt;br&gt;TEJ3M&lt;br&gt;Unit 4-07" style="text;html=1;align=center;verticalAlign=middle;resizable=0;points=[];autosize=1;strokeColor=none;fillColor=none;" parent="1" vertex="1">
                    <mxGeometry x="294" y="410" width="100" height="60" as="geometry"/>
                </mxCell>
                <mxCell id="14" value="" style="pointerEvents=1;verticalLabelPosition=bottom;shadow=0;dashed=0;align=center;html=1;verticalAlign=top;shape=mxgraph.electrical.resistors.resistor_1;" parent="1" vertex="1">
                    <mxGeometry x="400" y="660" width="100" height="20" as="geometry"/>
                </mxCell>
                <mxCell id="56" style="edgeStyle=orthogonalEdgeStyle;html=1;exitX=0;exitY=0.57;exitDx=0;exitDy=0;exitPerimeter=0;endArrow=none;endFill=0;rounded=0;curved=0;" parent="1" source="15" edge="1">
                    <mxGeometry relative="1" as="geometry">
                        <mxPoint x="370" y="490" as="targetPoint"/>
                        <Array as="points">
                            <mxPoint x="240" y="670"/>
                            <mxPoint x="240" y="490"/>
                        </Array>
                    </mxGeometry>
                </mxCell>
                <mxCell id="15" value="" style="verticalLabelPosition=bottom;shadow=0;dashed=0;align=center;html=1;verticalAlign=top;shape=mxgraph.electrical.opto_electronics.led_2;pointerEvents=1;rotation=0;" parent="1" vertex="1">
                    <mxGeometry x="300" y="630" width="100" height="70" as="geometry"/>
                </mxCell>
                <mxCell id="16" value="" style="pointerEvents=1;verticalLabelPosition=bottom;shadow=0;dashed=0;align=center;html=1;verticalAlign=top;shape=mxgraph.electrical.miscellaneous.batteryStack;rotation=-90;" parent="1" vertex="1">
                    <mxGeometry x="500" y="540" width="100" height="60" as="geometry"/>
                </mxCell>
                <mxCell id="21" value="&lt;div style=&quot;text-align: center;&quot;&gt;&lt;span style=&quot;text-align: start; background-color: transparent; font-size: 12px;&quot;&gt;220&amp;nbsp;&lt;/span&gt;&lt;span style=&quot;font-size: 13px; font-family: &amp;quot;Google Sans&amp;quot;, Arial, sans-serif; text-align: start; text-wrap-mode: wrap; background-color: transparent;&quot;&gt;Î©&lt;/span&gt;&lt;/div&gt;" style="text;html=1;align=center;verticalAlign=middle;resizable=0;points=[];autosize=1;strokeColor=none;fillColor=none;" parent="1" vertex="1">
                    <mxGeometry x="334" y="489" width="60" height="30" as="geometry"/>
                </mxCell>
                <mxCell id="22" value="5 V" style="text;html=1;align=center;verticalAlign=middle;resizable=0;points=[];autosize=1;strokeColor=none;fillColor=none;" parent="1" vertex="1">
                    <mxGeometry x="590" y="555" width="40" height="30" as="geometry"/>
                </mxCell>
                <mxCell id="23" value="+" style="text;html=1;align=center;verticalAlign=middle;resizable=0;points=[];autosize=1;strokeColor=none;fillColor=none;" parent="1" vertex="1">
                    <mxGeometry x="580" y="514" width="30" height="30" as="geometry"/>
                </mxCell>
                <mxCell id="24" value="-" style="text;html=1;align=center;verticalAlign=middle;resizable=0;points=[];autosize=1;strokeColor=none;fillColor=none;" parent="1" vertex="1">
                    <mxGeometry x="580" y="600" width="30" height="30" as="geometry"/>
                </mxCell>
                <mxCell id="25" value="input A" style="text;html=1;align=center;verticalAlign=middle;resizable=0;points=[];autosize=1;strokeColor=none;fillColor=none;" parent="1" vertex="1">
                    <mxGeometry x="400" y="542" width="60" height="30" as="geometry"/>
                </mxCell>
                <mxCell id="46" style="edgeStyle=orthogonalEdgeStyle;html=1;exitX=1;exitY=0.88;exitDx=0;exitDy=0;endArrow=none;endFill=0;rounded=0;curved=0;" parent="1" source="51" edge="1">
                    <mxGeometry relative="1" as="geometry">
                        <mxPoint x="510" y="670" as="targetPoint"/>
                    </mxGeometry>
                </mxCell>
                <mxCell id="28" value="" style="html=1;shape=mxgraph.electrical.electro-mechanical.twoWaySwitch;aspect=fixed;elSwitchState=2;rotation=0;flipV=1;" parent="1" vertex="1">
                    <mxGeometry x="400" y="516" width="75" height="26" as="geometry"/>
                </mxCell>
                <mxCell id="35" value="" style="verticalLabelPosition=bottom;shadow=0;dashed=0;align=center;html=1;verticalAlign=top;shape=mxgraph.electrical.transmission.testPoint;" parent="1" vertex="1">
                    <mxGeometry x="545" y="514" width="10" height="10" as="geometry"/>
                </mxCell>
                <mxCell id="39" value="&lt;span style=&quot;box-sizing: border-box; color: rgb(33, 33, 33); font-family: Lato, sans-serif; font-size: 14.6667px; font-variant-numeric: normal; font-variant-east-asian: normal; font-variant-alternates: normal; font-variant-position: normal; font-variant-emoji: normal; text-align: start; text-wrap-mode: wrap;&quot; class=&quot;C9DxTc&quot;&gt;NOT Gate&lt;/span&gt;&lt;span style=&quot;box-sizing: border-box; color: rgb(33, 33, 33); font-family: Lato, sans-serif; font-size: 14.6667px; font-variant-numeric: normal; font-variant-east-asian: normal; font-variant-alternates: normal; font-variant-position: normal; font-variant-emoji: normal; text-align: start; text-wrap-mode: wrap;&quot; class=&quot;C9DxTc&quot;&gt;&amp;nbsp;&amp;nbsp;&lt;br&gt;Schematic Diagram&lt;br&gt;&lt;/span&gt;---------------------&lt;br&gt;0 | 1&lt;br&gt;1 | 0" style="text;html=1;align=center;verticalAlign=middle;resizable=0;points=[];autosize=1;strokeColor=none;fillColor=none;" parent="1" vertex="1">
                    <mxGeometry x="114.77000000000001" y="399" width="150" height="90" as="geometry"/>
                </mxCell>
                <mxCell id="40" value="Output" style="text;html=1;align=center;verticalAlign=middle;resizable=0;points=[];autosize=1;strokeColor=none;fillColor=none;" parent="1" vertex="1">
                    <mxGeometry x="310" y="700" width="60" height="30" as="geometry"/>
                </mxCell>
                <mxCell id="44" style="edgeStyle=orthogonalEdgeStyle;html=1;exitX=0;exitY=0.5;exitDx=0;exitDy=0;entryX=1;entryY=0.5;entryDx=0;entryDy=0;entryPerimeter=0;endArrow=none;endFill=0;rounded=0;curved=0;" parent="1" source="51" target="14" edge="1">
                    <mxGeometry relative="1" as="geometry"/>
                </mxCell>
                <mxCell id="45" style="edgeStyle=orthogonalEdgeStyle;html=1;exitX=1;exitY=0.12;exitDx=0;exitDy=0;entryX=0.311;entryY=0.512;entryDx=0;entryDy=0;entryPerimeter=0;rounded=0;curved=0;endArrow=none;endFill=0;" parent="1" source="28" target="35" edge="1">
                    <mxGeometry relative="1" as="geometry"/>
                </mxCell>
                <mxCell id="53" style="edgeStyle=orthogonalEdgeStyle;html=1;entryX=0.5;entryY=0;entryDx=0;entryDy=0;endArrow=none;endFill=0;rounded=0;curved=0;" parent="1" target="35" edge="1">
                    <mxGeometry relative="1" as="geometry">
                        <mxPoint x="310" y="490" as="sourcePoint"/>
                    </mxGeometry>
                </mxCell>
                <mxCell id="47" value="" style="verticalLabelPosition=bottom;shadow=0;dashed=0;align=center;html=1;verticalAlign=top;shape=mxgraph.electrical.transistors.npn_transistor_1;allowArrows=1;rotation=-180;fillStyle=auto;flipV=1;" parent="1" vertex="1">
                    <mxGeometry x="264.77" y="499" width="65" height="60" as="geometry"/>
                </mxCell>
                <mxCell id="49" style="edgeStyle=orthogonalEdgeStyle;html=1;exitX=0.7;exitY=1;exitDx=0;exitDy=0;exitPerimeter=0;endArrow=none;endFill=0;rounded=0;curved=0;" parent="1" source="47" edge="1">
                    <mxGeometry relative="1" as="geometry">
                        <mxPoint x="510" y="610" as="targetPoint"/>
                        <Array as="points">
                            <mxPoint x="286" y="610"/>
                        </Array>
                    </mxGeometry>
                </mxCell>
                <mxCell id="50" value="" style="pointerEvents=1;verticalLabelPosition=bottom;shadow=0;dashed=0;align=center;html=1;verticalAlign=top;shape=mxgraph.electrical.resistors.resistor_1;" parent="1" vertex="1">
                    <mxGeometry x="314" y="519" width="100" height="20" as="geometry"/>
                </mxCell>
                <mxCell id="52" value="" style="edgeStyle=orthogonalEdgeStyle;html=1;exitX=0.741;exitY=0.89;exitDx=0;exitDy=0;endArrow=none;endFill=0;rounded=0;curved=0;exitPerimeter=0;" parent="1" source="61" target="51" edge="1">
                    <mxGeometry relative="1" as="geometry">
                        <mxPoint x="510" y="670" as="targetPoint"/>
                        <mxPoint x="475" y="539" as="sourcePoint"/>
                        <Array as="points">
                            <mxPoint x="515" y="614"/>
                        </Array>
                    </mxGeometry>
                </mxCell>
                <mxCell id="54" value="&lt;div style=&quot;text-align: center;&quot;&gt;&lt;span style=&quot;text-align: start; background-color: transparent; font-size: 12px;&quot;&gt;220&amp;nbsp;&lt;/span&gt;&lt;span style=&quot;font-size: 13px; font-family: &amp;quot;Google Sans&amp;quot;, Arial, sans-serif; text-align: start; text-wrap-mode: wrap; background-color: transparent;&quot;&gt;Î©&lt;/span&gt;&lt;/div&gt;" style="text;html=1;align=center;verticalAlign=middle;resizable=0;points=[];autosize=1;strokeColor=none;fillColor=none;" parent="1" vertex="1">
                    <mxGeometry x="420" y="630" width="60" height="30" as="geometry"/>
                </mxCell>
                <mxCell id="58" value="" style="edgeStyle=orthogonalEdgeStyle;html=1;exitX=0.7;exitY=0;exitDx=0;exitDy=0;exitPerimeter=0;entryX=0.5;entryY=0;entryDx=0;entryDy=0;endArrow=none;endFill=0;rounded=0;curved=0;" parent="1" source="47" target="57" edge="1">
                    <mxGeometry relative="1" as="geometry">
                        <mxPoint x="286" y="499" as="sourcePoint"/>
                        <mxPoint x="550" y="514" as="targetPoint"/>
                    </mxGeometry>
                </mxCell>
                <mxCell id="57" value="" style="verticalLabelPosition=bottom;shadow=0;dashed=0;align=center;html=1;verticalAlign=top;shape=mxgraph.electrical.transmission.testPoint;" parent="1" vertex="1">
                    <mxGeometry x="282" y="485" width="10" height="10" as="geometry"/>
                </mxCell>
                <mxCell id="60" value="" style="edgeStyle=orthogonalEdgeStyle;html=1;exitX=0;exitY=0.5;exitDx=0;exitDy=0;entryX=1;entryY=0.5;entryDx=0;entryDy=0;entryPerimeter=0;endArrow=none;endFill=0;rounded=0;curved=0;" edge="1" parent="1" source="16" target="51">
                    <mxGeometry relative="1" as="geometry">
                        <mxPoint x="550" y="620" as="sourcePoint"/>
                        <mxPoint x="500" y="670" as="targetPoint"/>
                    </mxGeometry>
                </mxCell>
                <mxCell id="51" value="" style="verticalLabelPosition=bottom;shadow=0;dashed=0;align=center;html=1;verticalAlign=top;shape=mxgraph.electrical.transmission.testPoint;" parent="1" vertex="1">
                    <mxGeometry x="510" y="665" width="10" height="10" as="geometry"/>
                </mxCell>
                <mxCell id="62" value="" style="edgeStyle=orthogonalEdgeStyle;html=1;exitX=1;exitY=0.88;exitDx=0;exitDy=0;endArrow=none;endFill=0;rounded=0;curved=0;" edge="1" parent="1" source="28" target="61">
                    <mxGeometry relative="1" as="geometry">
                        <mxPoint x="515" y="665" as="targetPoint"/>
                        <mxPoint x="475" y="539" as="sourcePoint"/>
                    </mxGeometry>
                </mxCell>
                <mxCell id="61" value="" style="verticalLabelPosition=bottom;shadow=0;dashed=0;align=center;html=1;verticalAlign=top;shape=mxgraph.electrical.transmission.testPoint;" vertex="1" parent="1">
                    <mxGeometry x="510" y="605" width="10" height="10" as="geometry"/>
                </mxCell>
            </root>
        </mxGraphModel>
    </diagram>
</mxfile>